<?xml version="1.0" encoding="UTF-8" standalone="no"?>
<!-- Created with Inkscape (http://www.inkscape.org/) -->

<svg
   width="100"
   height="100"
   viewBox="0 0 26.458333 26.458333"
   version="1.1"
   id="svg1"
   inkscape:version="1.3.1 (91b66b0783, 2023-11-16)"
   sodipodi:docname="drawing.svg"
   xmlns:inkscape="http://www.inkscape.org/namespaces/inkscape"
   xmlns:sodipodi="http://sodipodi.sourceforge.net/DTD/sodipodi-0.dtd"
   xmlns="http://www.w3.org/2000/svg"
   xmlns:svg="http://www.w3.org/2000/svg">
  <sodipodi:namedview
     id="namedview1"
     pagecolor="#ffffff"
     bordercolor="#000000"
     borderopacity="0.25"
     inkscape:showpageshadow="2"
     inkscape:pageopacity="0.0"
     inkscape:pagecheckerboard="0"
     inkscape:deskcolor="#d1d1d1"
     inkscape:document-units="mm"
     inkscape:zoom="0.4894542"
     inkscape:cx="185.92138"
     inkscape:cy="419.85543"
     inkscape:window-width="1920"
     inkscape:window-height="991"
     inkscape:window-x="-9"
     inkscape:window-y="-9"
     inkscape:window-maximized="1"
     inkscape:current-layer="layer1"
     inkscape:export-bgcolor="#ffffff00" />
  <defs
     id="defs1" />
  <g
     inkscape:label="Layer 1"
     inkscape:groupmode="layer"
     id="layer1">
    <circle
       style="fill:#a3c3d9;fill-opacity:1;fill-rule:evenodd;stroke-width:0.0636065"
       id="path1"
       cx="13.229167"
       cy="13.229167"
       r="8.4146109" />
    <path
       id="path2"
       style="fill:#a3c3d9;fill-rule:evenodd;stroke-width:0.0810376"
       inkscape:transform-center-y="-11.061823"
       d="m 15.978825,4.3346873 c -1.64178,-0.291573 -3.342087,-0.4774822 -5.499317,0 C 11.089843,2.9030632 11.649586,1.4736321 13.229167,0 c 1.612268,1.512211 2.060717,2.8591213 2.749658,4.3346873 z"
       sodipodi:nodetypes="cccc" />
    <path
       id="path5"
       style="fill:#a3c3d9;fill-rule:evenodd;stroke-width:0.0810376"
       inkscape:transform-center-y="11.061822"
       d="m 10.479508,22.123645 c 1.64178,0.291574 3.342088,0.477483 5.499317,0 -0.610335,1.431624 -1.170078,2.861056 -2.749658,4.334688 -1.612269,-1.512212 -2.060718,-2.859122 -2.749659,-4.334688 z"
       sodipodi:nodetypes="cccc" />
    <path
       id="path6"
       style="fill:#a3c3d9;fill-rule:evenodd;stroke-width:0.0810376"
       d="m 22.123646,15.978825 c 0.291573,-1.64178 0.477482,-3.342087 0,-5.499318 1.431623,0.610335 2.861056,1.170079 4.334687,2.749659 -1.512211,1.612269 -2.859122,2.060718 -4.334687,2.749659 z"
       sodipodi:nodetypes="cccc"
       inkscape:transform-center-x="-11.061822" />
    <path
       id="path7"
       style="fill:#a3c3d9;fill-rule:evenodd;stroke-width:0.0810376"
       d="m 4.3346883,10.479507 c -0.2915732,1.64178 -0.4774828,3.342089 0,5.499318 C 2.9030642,15.36849 1.4736332,14.808747 3.3333333e-7,13.229166 1.5122122,11.616898 2.859122,11.168448 4.3346883,10.479507 Z"
       sodipodi:nodetypes="cccc"
       inkscape:transform-center-x="11.061823" />
    <path
       id="path8"
       style="fill:#a3c3d9;fill-rule:evenodd;stroke-width:0.0408025;stroke-dasharray:none"
       d="m 18.822403,20.774734 c 0.686437,-0.479393 1.356141,-1.017083 1.952536,-1.952539 0.291599,0.725 0.600383,1.431258 0.562766,2.515304 -1.109348,0.03552 -1.746793,-0.283474 -2.515302,-0.562765 z"
       sodipodi:nodetypes="cccc" />
    <path
       id="path9"
       style="fill:#a3c3d9;fill-rule:evenodd;stroke-width:0.0407045"
       d="M 7.6359702,5.6829507 C 6.9492921,6.1625098 6.2793552,6.7003859 5.6827517,7.636169 5.3910507,6.9109168 5.0821596,6.2044124 5.1197895,5.1199883 6.2295258,5.0844512 6.867192,5.4035611 7.6359702,5.6829507 Z"
       sodipodi:nodetypes="cccc" />
    <path
       id="path11"
       style="fill:#a3c3d9;fill-rule:evenodd;stroke-width:0.0408025;stroke-dasharray:none"
       d="m 5.6827567,18.822398 c 0.4793929,0.686439 1.0170817,1.356141 1.9525382,1.952538 -0.7249998,0.291599 -1.4312578,0.600383 -2.5153039,0.562766 -0.035522,-1.10935 0.2834734,-1.746793 0.5627657,-2.515304 z"
       sodipodi:nodetypes="cccc" />
    <path
       id="path12"
       style="fill:#a3c3d9;fill-rule:evenodd;stroke-width:0.0407045"
       d="M 20.77454,7.6359664 C 20.294979,6.9492883 19.757104,6.2793514 18.82132,5.6827479 19.546572,5.3910468 20.253078,5.0821557 21.337502,5.1197856 21.373032,6.2295219 21.053929,6.8671882 20.77454,7.6359664 Z"
       sodipodi:nodetypes="cccc" />
  </g>
</svg>
